<svg width="1100" height="470" viewBox="0 0 1100 470" fill="none" xmlns="http://www.w3.org/2000/svg" role="img" aria-labelledby="title desc">
  <title id="title">nan733 terminal profile banner</title>
  <desc id="desc">A dark terminal inspired GitHub profile banner with cyan and violet accents.</desc>
  <defs>
    <linearGradient id="border" x1="64" y1="44" x2="1036" y2="426" gradientUnits="userSpaceOnUse">
      <stop stop-color="#7C3AED"/>
      <stop offset="0.48" stop-color="#00D9FF"/>
      <stop offset="1" stop-color="#00F5A0"/>
    </linearGradient>
    <linearGradient id="scan" x1="0" y1="0" x2="0" y2="470" gradientUnits="userSpaceOnUse">
      <stop stop-color="#0D1117" stop-opacity="0"/>
      <stop offset="0.5" stop-color="#00D9FF" stop-opacity="0.08"/>
      <stop offset="1" stop-color="#0D1117" stop-opacity="0"/>
    </linearGradient>
    <pattern id="grid" width="22" height="22" patternUnits="userSpaceOnUse">
      <path d="M 22 0 L 0 0 0 22" stroke="#1F6FEB" stroke-opacity="0.16" stroke-width="1"/>
    </pattern>
    <filter id="glow" x="-20%" y="-20%" width="140%" height="140%">
      <feGaussianBlur stdDeviation="4" result="blur"/>
      <feColorMatrix in="blur" type="matrix" values="0 0 0 0 0 0 0 0 0 0.82 0 0 0 0 1 0 0 0 0.75 0" result="cyan"/>
      <feMerge>
        <feMergeNode in="cyan"/>
        <feMergeNode in="SourceGraphic"/>
      </feMerge>
    </filter>
  </defs>

  <rect width="1100" height="470" rx="18" fill="#0D1117"/>
  <rect x="1" y="1" width="1098" height="468" rx="17" stroke="#30363D"/>
  <rect x="32" y="58" width="1036" height="354" rx="15" fill="#0B1220" stroke="url(#border)" stroke-width="2"/>
  <rect x="42" y="70" width="1016" height="330" rx="10" fill="url(#grid)" opacity="0.75"/>
  <rect x="42" y="70" width="1016" height="330" rx="10" fill="url(#scan)"/>

  <circle cx="62" cy="82" r="5" fill="#FF5F56"/>
  <circle cx="80" cy="82" r="5" fill="#FFBD2E"/>
  <circle cx="98" cy="82" r="5" fill="#27C93F"/>
  <text x="522" y="86" text-anchor="middle" fill="#8B949E" font-size="12" font-family="Consolas, Monaco, monospace">nandek@devbox ~ % ./profile.sh --live</text>
  <circle cx="1016" cy="82" r="4" fill="#F85149"/>
  <text x="1028" y="86" fill="#F85149" font-size="11" font-family="Consolas, Monaco, monospace">secure</text>

  <g transform="translate(62 118)">
    <rect width="420" height="260" rx="12" fill="#0D1117" stroke="#00D9FF" stroke-opacity="0.35"/>
    <text x="22" y="30" fill="#00D9FF" font-size="13" font-family="Consolas, Monaco, monospace" font-weight="700">VISUAL.MAP</text>
    <g fill="#00D9FF" font-family="Consolas, Monaco, monospace" font-size="10" opacity="0.9">
      <text x="22" y="72">..............:::::::::::::::.............</text>
      <text x="22" y="86">..........::::::::::::::::::::::::.........</text>
      <text x="22" y="100">.......::::::::::********::::::::::.......</text>
      <text x="22" y="114">.....::::::::****************::::::::.....</text>
      <text x="22" y="128">....::::::*******######*******::::::....</text>
      <text x="22" y="142">...:::::******##########******:::::...</text>
      <text x="22" y="156">...::::*****#####    #####*****::::...</text>
      <text x="22" y="170">..::::*****####  <>  ####*****::::..</text>
      <text x="22" y="184">..:::::*****####    ####*****:::::..</text>
      <text x="22" y="198">...::::::*****########*****::::::...</text>
      <text x="22" y="212">.....::::::::********::::::::.....</text>
      <text x="22" y="226">........::::::======::::::........</text>
      <text x="22" y="240">............::======::............</text>
    </g>
    <path d="M270 154 C310 120 356 128 382 164 C344 151 318 160 292 202" stroke="#7C3AED" stroke-width="2" stroke-opacity="0.75" filter="url(#glow)"/>
  </g>

  <g transform="translate(506 104)">
    <rect width="526" height="286" rx="12" fill="#0D1117" stroke="#00D9FF" stroke-opacity="0.35"/>
    <text x="22" y="33" fill="#7C3AED" font-size="15" font-family="Consolas, Monaco, monospace" font-weight="700">SYSTEM.INFO</text>
    <text x="22" y="56" fill="#00D9FF" font-size="18" font-family="Consolas, Monaco, monospace" font-weight="700">nan733</text>
    <line x1="88" y1="51" x2="458" y2="51" stroke="#30363D"/>

    <g font-family="Consolas, Monaco, monospace" font-size="14">
      <text x="22" y="88" fill="#00D9FF">Subject</text>
      <text x="145" y="88" fill="#30363D">---------------------</text>
      <text x="330" y="88" fill="#F0F6FC">nandek</text>

      <text x="22" y="112" fill="#00D9FF">Role</text>
      <text x="145" y="112" fill="#30363D">---------------------</text>
      <text x="330" y="112" fill="#F0F6FC">Developer in progress</text>

      <text x="22" y="136" fill="#00D9FF">Focus</text>
      <text x="145" y="136" fill="#30363D">---------------------</text>
      <text x="330" y="136" fill="#F0F6FC">Web apps + automation</text>

      <text x="22" y="160" fill="#00D9FF">Status</text>
      <text x="145" y="160" fill="#30363D">---------------------</text>
      <text x="330" y="160" fill="#F0F6FC">Learning / Building</text>

      <text x="22" y="196" fill="#00D9FF">Core.Frontend</text>
      <text x="190" y="196" fill="#30363D">-------------</text>
      <text x="330" y="196" fill="#F0F6FC">React, Vite, HTML, CSS</text>

      <text x="22" y="220" fill="#00D9FF">Core.Backend</text>
      <text x="190" y="220" fill="#30363D">-------------</text>
      <text x="330" y="220" fill="#F0F6FC">Python, APIs, data</text>

      <text x="22" y="244" fill="#00D9FF">Toolchain</text>
      <text x="190" y="244" fill="#30363D">-------------</text>
      <text x="330" y="244" fill="#F0F6FC">Git, GitHub, VS Code</text>
    </g>
  </g>

  <text x="62" y="438" fill="#8B949E" font-size="13" font-family="Consolas, Monaco, monospace">safe profile README // static SVG // no copied code</text>
</svg>
